<?xml version="1.0" encoding="iso-8859-1"?>
<!-- Generator: Adobe Illustrator 19.0.0, SVG Export Plug-In . SVG Version: 6.00 Build 0)  -->
<svg version="1.1" id="Layer_1" xmlns="http://www.w3.org/2000/svg" xmlns:xlink="http://www.w3.org/1999/xlink" x="0px" y="0px"
	 viewBox="0 0 512 512" style="enable-background:new 0 0 512 512;" xml:space="preserve">
<g>
	<g>
		<path d="M497.29,17.328l-2.607-2.607C485.19,5.228,472.569,0,459.144,0c-13.425,0-26.047,5.228-35.539,14.721L297.803,140.523
			l-33.325-33.325c-9.492-9.492-22.114-14.721-35.538-14.721s-26.046,5.228-35.539,14.721l-15.543,15.544L0.012,300.586L211.426,512
			l177.845-177.845l15.544-15.544c19.596-19.596,19.596-51.481,0-71.077l-33.324-33.325L497.293,88.407
			C516.887,68.81,516.887,36.925,497.29,17.328z M43.037,300.586l134.818-134.818l16.467,16.467L59.505,317.054L43.037,300.586z
			 M81.018,338.567l134.817-134.818l16.467,16.467L97.485,355.034L81.018,338.567z M118.998,376.547l134.818-134.818l16.467,16.467
			L135.465,393.014L118.998,376.547z M156.978,414.527l134.818-134.818l16.467,16.467L173.445,430.994L156.978,414.527z
			 M211.425,468.974l-16.467-16.467l134.818-134.818l16.467,16.467L211.425,468.974z M475.778,66.895L328.464,214.209l54.838,54.838
			c3.746,3.746,5.81,8.728,5.81,14.026c0,5.299-2.064,10.279-5.81,14.026l-15.544,15.544L199.369,144.255l15.544-15.544
			c3.746-3.746,8.728-5.81,14.026-5.81s10.279,2.064,14.026,5.81l54.838,54.839L445.117,36.234c3.747-3.746,8.728-5.81,14.026-5.81
			c5.299,0,10.279,2.064,14.027,5.811l2.608,2.607C483.512,46.577,483.512,59.16,475.778,66.895z"/>
	</g>
</g>
<g>
</g>
<g>
</g>
<g>
</g>
<g>
</g>
<g>
</g>
<g>
</g>
<g>
</g>
<g>
</g>
<g>
</g>
<g>
</g>
<g>
</g>
<g>
</g>
<g>
</g>
<g>
</g>
<g>
</g>
</svg>
